<?xml version="1.0" standalone="no"?>
<!DOCTYPE svg PUBLIC "-//W3C//DTD SVG 20010904//EN"
 "http://www.w3.org/TR/2001/REC-SVG-20010904/DTD/svg10.dtd">
<svg version="1.0" xmlns="http://www.w3.org/2000/svg"
 width="1000.000000pt" height="1000.000000pt" viewBox="0 0 1000.000000 1000.000000"
 preserveAspectRatio="xMidYMid meet">

<g transform="translate(0.000000,1000.000000) scale(0.100000,-0.100000)"
fill="#000000" stroke="none">
<path d="M0 5000 l0 -5000 5000 0 5000 0 0 5000 0 5000 -5000 0 -5000 0 0
-5000z m7370 4194 c338 -296 622 -538 630 -538 8 1 420 233 915 516 l900 514
3 -85 c5 -134 -17 -9413 -22 -9418 -6 -7 -1057 25 -1064 32 -3 3 -49 1581
-103 3508 -54 1926 -99 3521 -101 3545 l-3 43 -809 -881 c-446 -484 -813 -877
-817 -873 -20 22 -739 1335 -734 1342 2 5 -2 11 -10 14 -8 4 -25 28 -39 54
-45 86 -40 85 -109 11 l-62 -66 -1580 10 c-869 6 -1582 13 -1585 15 -3 3 2 8
10 13 8 5 895 641 1970 1413 1904 1368 1956 1404 1975 1387 11 -9 297 -259
635 -556z m-1607 -2489 c-32 -36 -830 -928 -1773 -1984 -943 -1055 -1716
-1917 -1717 -1916 -3 2 75 2593 79 2639 l3 30 1720 647 c946 356 1726 647
1733 648 8 1 -13 -28 -45 -64z"/>
</g>
</svg>
